<mxfile host="app.diagrams.net" agent="Mozilla/5.0 (Windows NT 10.0; Win64; x64) AppleWebKit/537.36 (KHTML, like Gecko) Chrome/128.0.0.0 Safari/537.36 Edg/128.0.0.0" version="24.7.10">
  <diagram name="第 1 页" id="ZuyG2BjGN45qpxwCaqKX">
    <mxGraphModel dx="1379" dy="862" grid="1" gridSize="10" guides="1" tooltips="1" connect="1" arrows="1" fold="1" page="1" pageScale="1" pageWidth="827" pageHeight="1169" math="0" shadow="0">
      <root>
        <mxCell id="0" />
        <mxCell id="1" parent="0" />
        <mxCell id="ikzPlqRrkbyMD9XROC6u-1" value="玩家" style="shape=umlActor;verticalLabelPosition=bottom;verticalAlign=top;html=1;outlineConnect=0;labelPosition=center;align=center;" parent="1" vertex="1">
          <mxGeometry x="270" y="340" width="30" height="60" as="geometry" />
        </mxCell>
        <mxCell id="ikzPlqRrkbyMD9XROC6u-2" value="创建新游戏数据" style="ellipse;whiteSpace=wrap;html=1;" parent="1" vertex="1">
          <mxGeometry x="520" y="160" width="120" height="80" as="geometry" />
        </mxCell>
        <mxCell id="ikzPlqRrkbyMD9XROC6u-4" value="删除已有游戏数据" style="ellipse;whiteSpace=wrap;html=1;" parent="1" vertex="1">
          <mxGeometry x="520" y="280" width="120" height="80" as="geometry" />
        </mxCell>
        <mxCell id="dLikWA5_gQOhVk4U9O3j-1" value="设置" style="ellipse;whiteSpace=wrap;html=1;" parent="1" vertex="1">
          <mxGeometry x="520" y="400" width="120" height="80" as="geometry" />
        </mxCell>
        <mxCell id="dLikWA5_gQOhVk4U9O3j-2" value="退出游戏" style="ellipse;whiteSpace=wrap;html=1;" parent="1" vertex="1">
          <mxGeometry x="520" y="530" width="120" height="80" as="geometry" />
        </mxCell>
        <mxCell id="2pacJCF-Av2xEvv4Jc_U-1" value="" style="endArrow=none;html=1;rounded=0;exitX=1;exitY=0.3333333333333333;exitDx=0;exitDy=0;exitPerimeter=0;entryX=0;entryY=0.5;entryDx=0;entryDy=0;" edge="1" parent="1" source="ikzPlqRrkbyMD9XROC6u-1" target="ikzPlqRrkbyMD9XROC6u-2">
          <mxGeometry width="50" height="50" relative="1" as="geometry">
            <mxPoint x="390" y="470" as="sourcePoint" />
            <mxPoint x="440" y="420" as="targetPoint" />
          </mxGeometry>
        </mxCell>
        <mxCell id="2pacJCF-Av2xEvv4Jc_U-3" value="" style="endArrow=none;html=1;rounded=0;exitX=1;exitY=0.3333333333333333;exitDx=0;exitDy=0;exitPerimeter=0;entryX=0;entryY=0.5;entryDx=0;entryDy=0;" edge="1" parent="1" source="ikzPlqRrkbyMD9XROC6u-1" target="ikzPlqRrkbyMD9XROC6u-4">
          <mxGeometry width="50" height="50" relative="1" as="geometry">
            <mxPoint x="390" y="470" as="sourcePoint" />
            <mxPoint x="440" y="420" as="targetPoint" />
          </mxGeometry>
        </mxCell>
        <mxCell id="2pacJCF-Av2xEvv4Jc_U-4" value="" style="endArrow=none;html=1;rounded=0;entryX=0;entryY=0.5;entryDx=0;entryDy=0;" edge="1" parent="1" target="dLikWA5_gQOhVk4U9O3j-1">
          <mxGeometry width="50" height="50" relative="1" as="geometry">
            <mxPoint x="300" y="360" as="sourcePoint" />
            <mxPoint x="440" y="420" as="targetPoint" />
          </mxGeometry>
        </mxCell>
        <mxCell id="2pacJCF-Av2xEvv4Jc_U-5" value="" style="endArrow=none;html=1;rounded=0;entryX=0;entryY=0.5;entryDx=0;entryDy=0;" edge="1" parent="1" target="dLikWA5_gQOhVk4U9O3j-2">
          <mxGeometry width="50" height="50" relative="1" as="geometry">
            <mxPoint x="300" y="360" as="sourcePoint" />
            <mxPoint x="510" y="570" as="targetPoint" />
          </mxGeometry>
        </mxCell>
      </root>
    </mxGraphModel>
  </diagram>
</mxfile>
